<svg xmlns="http://www.w3.org/2000/svg" viewBox="0 0 20.4 24.4"><defs><style>.cls-1,.cls-2{fill:#63a5a8;}.cls-1{fill-rule:evenodd;}</style></defs><g id="Layer_2" data-name="Layer 2"><g id="Layer_1-2" data-name="Layer 1"><path class="cls-1" d="M3.2,24.3a2.1,2.1,0,0,1-2.1-2.1V5.3H.1V3.1h6V1.7A1.6,1.6,0,0,1,7.7.1h5a1.6,1.6,0,0,1,1.6,1.6V3.1h6V5.3h-1V22.2a2.1,2.1,0,0,1-2.1,2.1Zm.1-2.6a.4.4,0,0,0,.4.4h13a.4.4,0,0,0,.4-.4V5.3H3.3ZM12.1,3.1V2.3H8.3v.8Zm1.1,16.2a1.1,1.1,0,0,1-1.1-1.1v-9a1.1,1.1,0,0,1,2.2,0v9A1.1,1.1,0,0,1,13.2,19.3Zm-6,0a1.1,1.1,0,0,1-1.1-1.1v-9a1.1,1.1,0,0,1,2.2,0v9A1.1,1.1,0,0,1,7.2,19.3Z"/><path class="cls-2" d="M12.7.2a1.5,1.5,0,0,1,1.5,1.5V3.2h6v2h-1v17a2,2,0,0,1-2,2H3.2a2,2,0,0,1-2-2V5.2H.2v-2h6V1.7A1.5,1.5,0,0,1,7.7.2h5m-4.5,3h4v-1h-4v1m-4.5,19h13a.5.5,0,0,0,.5-.5V5.2H3.2V21.7a.5.5,0,0,0,.5.5m9.5-14a1,1,0,0,1,1,1v9a1,1,0,0,1-2,0v-9a1,1,0,0,1,1-1m-6,0a1,1,0,0,1,1,1v9a1,1,0,1,1-2,0v-9a1,1,0,0,1,1-1M12.7,0h-5A1.7,1.7,0,0,0,6,1.7V3H0V5.4H1V22.2a2.21,2.21,0,0,0,2.2,2.2h14a2.21,2.21,0,0,0,2.2-2.2V5.4h1V3h-6V1.7A1.7,1.7,0,0,0,12.7,0ZM8.4,2.4H12V3H8.4V2.4Zm-5,3H17V21.7a.29.29,0,0,1-.3.3H3.7a.29.29,0,0,1-.3-.3V5.4ZM13.2,8A1.2,1.2,0,0,0,12,9.2v9a1.2,1.2,0,0,0,2.4,0v-9A1.2,1.2,0,0,0,13.2,8Zm-6,0A1.2,1.2,0,0,0,6,9.2v9a1.2,1.2,0,0,0,2.4,0v-9A1.2,1.2,0,0,0,7.2,8Z"/></g></g></svg>