<svg xmlns="http://www.w3.org/2000/svg" viewBox="0 0 14 11.03"><defs><style>.cls-1{fill:#63a5a8;}</style></defs><g id="Layer_2" data-name="Layer 2"><g id="Layer_1-2" data-name="Layer 1"><path class="cls-1" d="M3.66,5.67l.1.08L5.29,7.27A1.07,1.07,0,1,1,3.84,8.85L.33,5.33a1.05,1.05,0,0,1,0-1.53L3.84.29a1.08,1.08,0,0,1,1.47,0,1.08,1.08,0,0,1,0,1.55c-.52.53-1,1-1.57,1.57l-.11.08a.24.24,0,0,0,.16,0H7.49a6.24,6.24,0,0,1,3.34.91,6.35,6.35,0,0,1,3.08,4.5A4.43,4.43,0,0,1,14,10.06a1.07,1.07,0,0,1-2.14-.1A4.33,4.33,0,0,0,9,5.88a4.27,4.27,0,0,0-1.32-.24H3.69Z"/></g></g></svg>