<svg xmlns="http://www.w3.org/2000/svg" viewBox="0 0 18 18"><defs><style>.cls-1{fill:#fff;opacity:0;}.cls-2{fill:#4aa7a9;stroke:#4aa7a9;stroke-miterlimit:10;stroke-width:0.3px;}</style></defs><title>Download</title><g id="Layer_2" data-name="Layer 2"><g id="Layer_1-2" data-name="Layer 1"><circle class="cls-1" cx="9" cy="9" r="9"/><path class="cls-2" d="M14.05,7.65A5.15,5.15,0,0,0,4.43,6.28a4.12,4.12,0,0,0,.45,8.22h8.93a3.43,3.43,0,0,0,.24-6.85Zm-.24,5.48H4.88a2.75,2.75,0,0,1,0-5.5h.48a3.78,3.78,0,0,1,7.42,1V9h1a2.07,2.07,0,1,1,0,4.13Z"/><path class="cls-2" d="M9.63,10V7.5H8.38V10H6.5L9,12.5,11.5,10Z"/></g></g></svg>