<svg xmlns="http://www.w3.org/2000/svg" viewBox="0 0 18 18">
  <defs>
  </defs>
  <title>Refresh Normal</title>
  <g id="Layer_2" data-name="Layer 2">
    <g id="Layer_1-2" data-name="Layer 1">
      <g style="opacity:0">
        <circle style="fill:#fff" cx="9" cy="9" r="9"/>
      </g>
      <path style="fill:#4aa7a9;stroke:#eee;stroke-miterlimit:10;stroke-width:0.3px;" d="M7.12,9,4.34,12.11,1.5,9H3.37A5.63,5.63,0,0,1,9,3.37a5.57,5.57,0,0,1,3.86,1.55L11.61,6.31A3.75,3.75,0,0,0,5.25,9Zm6.54-3.11L10.88,9h1.87a3.75,3.75,0,0,1-6.36,2.69L5.14,13.08A5.57,5.57,0,0,0,9,14.63,5.63,5.63,0,0,0,14.63,9H16.5Z"/>
    </g>
  </g>
</svg>